<svg id="Layer_1" data-name="Layer 1" xmlns="http://www.w3.org/2000/svg" viewBox="0 0 302.76 207.42"><defs><style>.cls-1{fill:#fff;stroke:#fff;stroke-miterlimit:10;}</style></defs><path class="cls-1" d="M230,147.56v67.28h77.66V147.56H328.5V308.21H307.64V232.84H230v75.37H209.12V147.56Z" transform="translate(-208.62 -146.29)"/><path class="cls-1" d="M337,353.21V146.79h42.8q46.31,0,67.21,7.44,30,10.53,46.94,36.48t16.91,61.89q0,31-13.4,54.58T462.68,342q-21.4,11.24-60,11.23ZM356.8,333.7h23.86q42.79,0,59.36-5.33a68.45,68.45,0,0,0,36.62-27.26Q490,281.4,490,252.94q0-29.85-14.45-51t-40.28-29Q415.89,167,371.4,167H356.8Z" transform="translate(-208.62 -146.29)"/><rect class="cls-1" x="0.5" y="173.98" width="119.37" height="6.89"/><rect class="cls-1" x="0.5" y="187" width="119.37" height="6.89"/><rect class="cls-1" x="0.5" y="200.02" width="119.37" height="6.89"/></svg>